<svg 
 xmlns="http://www.w3.org/2000/svg"
 xmlns:xlink="http://www.w3.org/1999/xlink"
 width="63px" height="60px">
<path fill-rule="evenodd"  fill="rgb(226, 219, 26)"
 d="M61.995,12.441 L61.995,7.779 L61.995,7.699 C61.835,6.066 60.743,4.979 59.180,4.821 L59.100,4.821 L49.722,4.821 L49.722,2.720 C49.722,1.245 48.470,-0.000 46.986,-0.000 L14.169,-0.000 C12.685,-0.000 11.433,1.245 11.433,2.720 L11.433,4.821 L2.916,4.821 L2.836,4.821 C1.273,4.900 0.180,6.066 0.021,7.699 L0.021,7.779 L0.021,12.441 C-0.058,13.687 -0.449,25.733 12.526,27.755 C14.559,33.425 19.249,37.937 25.190,39.642 L25.190,47.334 L14.871,52.228 C14.871,52.228 14.791,52.228 14.791,52.307 C13.308,53.163 12.526,54.409 12.526,55.804 L12.526,57.359 L12.526,57.438 C12.685,58.992 13.778,60.000 15.421,60.000 L45.821,60.000 C47.464,60.000 48.636,58.992 48.716,57.438 L48.716,57.359 L48.716,55.804 C48.716,54.409 47.934,53.163 46.451,52.307 L46.371,52.228 L36.211,47.407 L36.211,39.570 C41.913,37.858 46.530,33.432 48.636,27.834 C53.014,27.287 56.372,25.660 58.716,22.941 C62.313,18.659 61.995,13.219 61.995,12.441 ZM11.744,24.725 C2.134,22.473 2.836,13.147 2.916,12.679 C2.916,12.600 2.916,12.600 2.916,12.521 L2.916,7.858 C2.916,7.779 2.916,7.700 2.916,7.700 L2.995,7.700 L11.433,7.700 L11.433,21.379 C11.433,21.926 11.433,22.386 11.513,22.933 C11.513,23.013 11.513,23.092 11.513,23.092 C11.585,23.639 11.665,24.099 11.744,24.725 C11.744,24.646 11.744,24.646 11.744,24.725 ZM45.821,55.732 L45.821,57.056 L45.821,57.056 L15.341,57.056 L15.341,57.056 L15.341,55.732 C15.341,55.344 15.811,54.955 16.122,54.797 L26.753,49.825 L34.409,49.825 L45.040,54.797 C45.351,54.955 45.821,55.344 45.821,55.732 ZM33.237,40.419 L33.237,46.946 L28.077,46.946 L28.077,40.419 L33.237,40.419 ZM30.581,37.548 C23.236,37.548 17.063,32.727 15.030,26.121 L15.030,26.121 C14.950,25.733 14.798,25.344 14.719,24.955 L14.719,24.955 C14.559,24.257 14.487,23.480 14.408,22.782 C14.408,22.703 14.408,22.624 14.408,22.552 C14.408,22.163 14.328,21.854 14.328,21.465 L14.328,6.303 L14.328,2.885 L46.762,2.885 L46.762,6.771 L46.762,21.307 C46.762,21.695 46.762,22.005 46.682,22.393 C46.682,22.473 46.682,22.552 46.682,22.624 C46.682,22.933 46.603,23.322 46.603,23.631 L46.603,23.710 C46.523,24.099 46.443,24.408 46.371,24.797 C46.371,24.876 46.371,24.955 46.291,25.027 C46.212,25.337 46.132,25.646 46.060,25.963 C44.099,32.648 37.846,37.548 30.581,37.548 ZM56.451,21.149 C54.809,23.092 52.464,24.336 49.418,24.876 L49.418,24.797 C49.497,24.250 49.577,23.790 49.649,23.242 C49.649,23.163 49.649,23.084 49.649,23.084 C49.729,22.537 49.729,21.998 49.729,21.451 L49.729,7.706 L59.028,7.706 C59.107,7.706 59.107,7.706 59.107,7.706 C59.107,7.706 59.107,7.786 59.107,7.865 L59.107,12.528 C59.107,12.607 59.107,12.607 59.107,12.686 C59.107,12.758 59.498,17.493 56.451,21.149 ZM27.607,30.784 C27.375,31.331 26.825,31.719 26.275,31.719 C26.116,31.719 25.964,31.719 25.725,31.640 C20.957,29.856 19.943,25.581 20.023,23.639 L20.023,9.030 C20.023,8.253 20.645,7.635 21.427,7.635 C22.208,7.635 22.831,8.253 22.831,9.030 L22.831,23.717 C22.831,23.948 22.671,27.524 26.659,29.000 C27.534,29.229 27.925,30.086 27.607,30.784 Z"/>
</svg>