<svg 
 xmlns="http://www.w3.org/2000/svg"
 xmlns:xlink="http://www.w3.org/1999/xlink"
 width="64px" height="48px">
<path fill-rule="evenodd"  fill="rgb(226, 219, 26)"
 d="M58.038,6.223 L21.202,6.223 C21.202,6.144 21.202,6.065 21.202,5.993 L21.202,3.112 C21.202,1.397 19.812,-0.000 18.107,-0.000 L7.502,-0.000 C5.797,-0.000 4.407,1.397 4.407,3.112 L4.407,5.993 C4.407,6.151 4.407,6.302 4.485,6.381 C1.935,7.001 -0.000,9.335 -0.000,12.058 L-0.000,42.086 C-0.000,45.356 2.630,47.999 5.883,47.999 L58.117,47.999 C61.370,47.999 64.000,45.356 64.000,42.086 L64.000,12.058 C63.914,8.795 61.284,6.223 58.038,6.223 ZM7.273,3.039 C7.273,2.881 7.351,2.809 7.502,2.809 L18.107,2.809 C18.264,2.809 18.336,2.888 18.336,3.039 L18.336,5.921 C18.336,6.079 18.257,6.151 18.107,6.151 L7.502,6.151 C7.344,6.151 7.273,6.072 7.273,5.921 L7.273,3.039 ZM5.876,9.025 L7.581,9.025 L18.185,9.025 L58.110,9.025 C59.737,9.025 61.127,10.350 61.127,12.058 L61.127,26.060 L45.729,26.060 C45.034,19.138 39.151,13.692 32.107,13.692 C25.064,13.692 19.181,19.138 18.486,26.060 L2.859,26.060 L2.859,12.058 C2.859,10.430 4.177,9.025 5.876,9.025 ZM42.948,27.544 C42.948,33.536 38.076,38.434 32.115,38.434 C26.153,38.434 21.281,33.529 21.281,27.544 C21.281,21.558 26.153,16.653 32.115,16.653 C38.069,16.574 42.948,21.472 42.948,27.544 ZM58.038,45.118 L5.876,45.118 C4.249,45.118 2.859,43.793 2.859,42.086 L2.859,28.941 L18.415,28.941 C19.110,35.863 24.992,41.308 32.036,41.308 C39.079,41.308 44.962,35.863 45.657,28.941 L60.976,28.941 L60.976,42.086 C61.055,43.800 59.737,45.118 58.038,45.118 ZM32.115,20.542 C28.324,20.542 25.229,23.654 25.229,27.464 C25.229,31.274 28.324,34.386 32.115,34.386 C35.905,34.386 39.000,31.274 39.000,27.464 C39.000,23.654 35.905,20.542 32.115,20.542 ZM32.115,31.584 C29.872,31.584 28.088,29.798 28.088,27.537 C28.088,25.275 29.865,23.488 32.115,23.488 C34.364,23.488 36.141,25.275 36.141,27.537 C36.134,29.798 34.278,31.584 32.115,31.584 ZM54.169,14.550 C54.169,13.692 54.864,12.994 55.717,12.994 C56.570,12.994 57.265,13.692 57.265,14.550 C57.265,15.407 56.570,16.106 55.717,16.106 C54.864,16.184 54.169,15.486 54.169,14.550 ZM48.437,14.550 C48.437,13.692 49.132,12.994 49.985,12.994 C50.838,12.994 51.533,13.692 51.533,14.550 C51.533,15.407 50.838,16.106 49.985,16.106 C49.139,16.184 48.437,15.486 48.437,14.550 Z"/>
</svg>