<svg 
 xmlns="http://www.w3.org/2000/svg"
 xmlns:xlink="http://www.w3.org/1999/xlink"
 width="16px" height="16px">
<path fill-rule="evenodd"  fill="rgb(0, 0, 0)"
 d="M15.608,13.717 L12.132,10.241 C12.113,10.223 12.092,10.210 12.073,10.193 C12.756,9.155 13.156,7.913 13.156,6.578 C13.156,2.945 10.211,-0.000 6.578,-0.000 C2.945,-0.000 -0.000,2.945 -0.000,6.578 C-0.000,10.210 2.945,13.156 6.578,13.156 C7.913,13.156 9.155,12.756 10.192,12.072 C10.210,12.092 10.223,12.113 10.241,12.132 L13.717,15.608 C14.239,16.130 15.086,16.130 15.608,15.608 C16.130,15.086 16.130,14.239 15.608,13.717 ZM6.578,10.875 C4.204,10.875 2.280,8.951 2.280,6.578 C2.280,4.204 4.204,2.280 6.578,2.280 C8.951,2.280 10.875,4.204 10.875,6.578 C10.875,8.951 8.951,10.875 6.578,10.875 Z"/>
</svg>