<svg 
 xmlns="http://www.w3.org/2000/svg"
 xmlns:xlink="http://www.w3.org/1999/xlink"
 width="56px" height="60px">
<path fill-rule="evenodd"  fill="rgb(226, 219, 26)"
 d="M38.617,6.906 L40.220,4.208 C40.584,3.553 41.385,3.331 42.039,3.695 C42.692,4.059 42.914,4.862 42.550,5.516 L40.948,8.214 C40.732,8.652 40.220,8.868 39.782,8.868 C39.567,8.868 39.345,8.794 39.129,8.719 C38.469,8.362 38.254,7.566 38.617,6.906 ZM15.052,8.221 C15.268,8.659 15.780,8.874 16.217,8.874 C16.433,8.874 16.655,8.800 16.871,8.727 C17.524,8.362 17.746,7.560 17.383,6.906 L15.780,4.208 C15.416,3.554 14.614,3.331 13.961,3.695 C13.308,4.059 13.086,4.862 13.449,5.516 L15.052,8.221 ZM27.997,5.745 C28.724,5.745 29.303,5.165 29.303,4.437 L29.303,1.308 C29.303,0.579 28.724,-0.000 27.997,-0.000 C27.269,-0.000 26.690,0.579 26.690,1.308 L26.690,4.437 C26.616,5.159 27.195,5.745 27.997,5.745 ZM4.431,26.645 L1.306,26.645 C0.579,26.645 -0.000,27.225 -0.000,27.953 C-0.000,28.681 0.579,29.261 1.306,29.261 L4.431,29.261 C5.159,29.261 5.738,28.681 5.738,27.953 C5.738,27.225 5.159,26.645 4.431,26.645 ZM54.693,26.645 L51.568,26.645 C50.841,26.645 50.262,27.225 50.262,27.953 C50.262,28.681 50.841,29.261 51.568,29.261 L54.693,29.261 C55.421,29.261 56.000,28.681 56.000,27.953 C56.000,27.225 55.421,26.645 54.693,26.645 ZM52.289,13.973 C51.925,13.319 51.124,13.096 50.471,13.460 L47.777,15.065 C47.123,15.430 46.901,16.232 47.265,16.886 C47.480,17.325 47.992,17.540 48.430,17.540 C48.646,17.540 48.868,17.466 49.083,17.392 L51.777,15.787 C52.437,15.430 52.653,14.627 52.289,13.973 ZM45.164,27.811 C45.164,30.799 44.362,33.712 42.907,36.335 C42.833,36.551 42.759,36.700 42.618,36.848 L42.470,37.064 C41.890,37.940 41.304,38.811 40.577,39.539 C38.031,43.107 36.725,46.168 36.792,48.131 L36.792,48.205 C36.792,48.353 36.866,48.569 36.866,48.785 L36.866,55.050 C36.866,57.815 34.610,59.999 31.923,59.999 L23.855,59.999 C21.093,59.999 18.911,57.740 18.911,55.050 L18.911,48.785 C18.911,48.637 18.911,48.569 18.911,48.421 C18.911,48.346 18.911,48.205 18.911,48.131 C18.986,46.236 17.672,43.248 15.275,39.755 C14.473,38.878 13.672,37.934 13.093,36.841 C13.018,36.693 12.944,36.626 12.877,36.477 C11.348,33.854 10.547,30.867 10.547,27.885 C10.547,18.343 18.332,10.554 27.855,10.554 C37.378,10.480 45.164,18.269 45.164,27.811 ZM34.179,49.513 L21.599,49.513 L21.599,51.988 L34.179,51.988 L34.179,49.513 L34.179,49.513 ZM34.179,55.198 L34.179,54.685 L21.599,54.685 L21.599,55.198 C21.747,56.365 22.690,57.234 23.855,57.234 L31.930,57.234 C33.088,57.234 34.038,56.365 34.179,55.198 ZM42.470,27.811 C42.470,19.725 35.923,13.170 27.848,13.170 C19.773,13.170 13.227,19.725 13.227,27.811 C13.227,30.435 13.954,32.984 15.261,35.243 L15.261,35.243 C15.261,35.243 15.261,35.243 15.261,35.317 C15.840,36.261 16.500,37.138 17.227,37.940 C17.302,38.015 17.302,38.015 17.376,38.089 C19.773,41.515 21.161,44.428 21.524,46.829 L34.253,46.829 C34.691,43.841 36.725,40.422 38.543,37.873 C38.543,37.799 38.617,37.799 38.691,37.725 C39.345,37.071 39.931,36.268 40.362,35.465 C40.362,35.391 40.436,35.391 40.436,35.317 C40.436,35.243 40.510,35.243 40.510,35.169 C41.816,32.984 42.470,30.435 42.470,27.811 ZM8.216,15.065 L5.522,13.460 C4.869,13.096 4.068,13.312 3.704,13.973 C3.340,14.627 3.556,15.430 4.216,15.794 L6.910,17.399 C7.125,17.547 7.348,17.547 7.563,17.547 C8.001,17.547 8.506,17.331 8.728,16.893 C9.085,16.232 8.870,15.430 8.216,15.065 Z"/>
</svg>