<svg 
 xmlns="http://www.w3.org/2000/svg"
 xmlns:xlink="http://www.w3.org/1999/xlink"
 width="60px" height="60px">
<path fill-rule="evenodd"  fill="rgb(226, 219, 26)"
 d="M37.762,58.940 C37.684,58.940 37.535,58.940 37.456,58.940 C35.844,58.636 34.387,57.567 33.620,56.108 C33.542,56.030 33.542,55.952 33.464,55.881 C33.385,55.726 32.774,54.578 31.005,54.508 L30.934,54.508 C30.323,54.508 29.783,54.508 29.172,54.508 L29.087,54.508 C27.247,54.508 26.629,55.810 26.629,55.881 C26.550,55.959 26.550,56.037 26.472,56.108 C25.705,57.559 24.249,58.629 22.636,58.940 C22.408,59.018 22.174,59.018 21.947,58.940 C20.490,58.558 18.955,58.020 17.570,57.333 C17.343,57.255 17.186,57.106 17.030,56.950 C16.035,55.648 15.574,53.892 15.957,52.284 C15.957,52.206 15.957,52.128 16.035,51.980 C16.035,51.824 16.341,50.528 15.041,49.381 L14.963,49.303 C14.501,48.921 14.039,48.539 13.584,48.156 L13.584,48.156 C12.973,47.696 12.355,47.469 11.666,47.469 C11.126,47.469 10.742,47.625 10.742,47.625 C10.664,47.703 10.586,47.703 10.437,47.703 C8.902,48.312 7.062,48.241 5.606,47.398 C5.378,47.320 5.222,47.172 5.144,46.938 C4.298,45.713 3.531,44.417 2.842,43.036 C2.764,42.810 2.686,42.654 2.686,42.427 C2.686,40.742 3.531,39.064 4.831,38.066 C4.909,37.988 4.988,37.910 5.059,37.910 C5.137,37.832 6.210,36.989 5.982,35.233 C5.982,35.233 5.982,35.233 5.982,35.156 C5.826,34.618 5.755,34.008 5.677,33.400 C5.677,33.322 5.677,33.322 5.677,33.322 C5.371,31.565 3.915,31.183 3.915,31.183 C3.837,31.183 3.758,31.105 3.609,31.105 C1.996,30.567 0.618,29.271 0.078,27.664 C-0.000,27.438 -0.000,27.282 -0.000,27.055 C0.156,25.682 0.384,24.223 0.767,22.771 C0.845,22.544 0.924,22.389 1.073,22.233 C2.224,20.860 3.915,20.095 5.599,20.166 C5.677,20.166 5.755,20.166 5.904,20.166 C6.288,20.166 7.517,20.088 8.284,18.714 C8.284,18.714 8.284,18.636 8.362,18.636 C8.590,18.176 8.902,17.645 9.286,17.107 C9.286,17.107 9.286,17.029 9.364,17.029 C10.210,15.499 9.520,14.352 9.442,14.197 C9.364,14.118 9.364,14.041 9.286,13.970 C8.362,12.441 8.135,10.606 8.824,8.921 C8.902,8.766 8.980,8.539 9.130,8.383 C10.124,7.392 11.204,6.471 12.355,5.707 C12.512,5.551 12.739,5.480 12.895,5.480 C14.657,5.098 16.504,5.636 17.805,6.783 C17.883,6.861 17.961,6.861 18.032,6.939 C18.032,6.939 18.721,7.548 19.723,7.548 C20.029,7.548 20.412,7.470 20.796,7.392 L20.796,7.392 C21.407,7.166 22.025,6.931 22.558,6.783 C24.171,6.174 24.398,4.793 24.398,4.645 C24.398,4.566 24.398,4.489 24.476,4.418 C24.703,2.662 25.783,1.054 27.389,0.212 C27.545,0.134 27.773,0.056 27.929,0.056 C29.463,-0.021 30.536,-0.021 32.071,0.056 C32.298,0.056 32.455,0.134 32.611,0.212 C34.224,1.055 35.297,2.584 35.524,4.340 C35.524,4.418 35.602,4.495 35.602,4.645 C35.602,4.800 35.829,6.096 37.442,6.783 L37.442,6.783 C38.053,6.939 38.671,7.166 39.204,7.392 L39.204,7.392 C39.588,7.548 39.972,7.619 40.277,7.619 C41.350,7.619 41.968,7.009 41.968,7.009 C42.046,6.931 42.124,6.854 42.195,6.854 C43.503,5.707 45.343,5.169 47.105,5.551 C47.332,5.629 47.488,5.707 47.645,5.778 C48.796,6.620 49.868,7.533 50.870,8.454 C51.027,8.610 51.098,8.759 51.176,8.992 C51.787,10.678 51.638,12.511 50.714,14.041 C50.714,14.118 50.636,14.197 50.558,14.267 C50.480,14.338 49.790,15.570 50.636,17.100 C50.636,17.100 50.636,17.178 50.714,17.178 C51.019,17.716 51.325,18.169 51.638,18.707 C51.638,18.707 51.638,18.785 51.716,18.785 C52.483,20.088 53.712,20.236 54.096,20.236 C54.174,20.236 54.323,20.236 54.401,20.236 C56.092,20.158 57.854,20.923 58.927,22.304 C59.083,22.460 59.154,22.686 59.233,22.842 C59.616,24.216 59.844,25.674 60.000,27.126 C60.000,27.353 60.000,27.509 59.922,27.735 C59.311,29.420 58.004,30.638 56.391,31.176 C56.313,31.254 56.234,31.254 56.085,31.254 C55.929,31.254 54.629,31.714 54.323,33.470 L54.323,33.548 C54.245,34.157 54.167,34.773 54.018,35.305 L54.018,35.382 C53.790,36.912 54.941,37.754 54.941,37.754 C55.020,37.832 55.098,37.910 55.169,37.981 C56.476,39.050 57.314,40.657 57.314,42.343 C57.314,42.569 57.236,42.803 57.158,42.952 C56.547,44.255 55.780,45.628 54.856,46.853 C54.700,47.009 54.551,47.158 54.394,47.314 C53.549,47.774 52.632,48.001 51.631,48.001 L51.631,48.001 C50.941,48.001 50.174,47.845 49.556,47.618 C49.478,47.618 49.400,47.540 49.250,47.540 L49.250,47.540 C49.250,47.540 48.867,47.384 48.327,47.384 C47.638,47.384 47.020,47.611 46.487,48.071 C46.487,48.071 46.487,48.071 46.409,48.071 C46.025,48.454 45.563,48.836 45.030,49.219 C45.030,49.219 44.952,49.219 44.952,49.296 C43.801,50.288 43.801,51.364 43.879,51.817 C43.957,51.973 43.957,52.122 43.957,52.277 L43.957,52.277 C44.263,53.885 43.879,55.563 42.806,56.788 C42.650,56.943 42.501,57.092 42.266,57.170 C40.888,57.779 39.353,58.317 37.890,58.778 C37.989,58.940 37.840,58.940 37.762,58.940 ZM19.041,54.883 C20.114,55.343 21.186,55.726 22.266,56.030 C23.034,55.803 23.645,55.265 23.957,54.578 C24.036,54.501 24.036,54.422 24.114,54.274 C24.725,53.205 26.259,51.675 28.874,51.597 C28.952,51.597 28.952,51.597 28.952,51.597 L29.030,51.597 C29.641,51.597 30.181,51.597 30.792,51.597 L30.870,51.597 L30.948,51.597 C33.478,51.675 35.090,53.205 35.709,54.274 C35.787,54.352 35.865,54.430 35.865,54.578 C36.170,55.265 36.788,55.803 37.556,56.030 C38.629,55.726 39.780,55.343 40.781,54.883 C41.165,54.196 41.321,53.431 41.087,52.666 C41.087,52.589 41.009,52.440 41.009,52.362 C40.781,51.137 41.009,48.999 42.927,47.235 L43.005,47.158 L43.083,47.080 C43.623,46.697 44.007,46.315 44.462,45.932 L44.540,45.855 C44.540,45.855 44.618,45.855 44.618,45.777 C45.691,44.934 46.920,44.474 48.227,44.474 C48.995,44.474 49.606,44.630 49.989,44.778 C50.067,44.778 50.217,44.856 50.295,44.856 C50.678,45.012 51.062,45.083 51.446,45.083 L51.446,45.083 C51.829,45.083 52.213,45.005 52.519,44.856 C53.130,43.936 53.748,42.945 54.210,41.953 C54.131,41.188 53.670,40.424 53.059,39.964 C52.980,39.886 52.902,39.808 52.831,39.737 C51.837,38.894 50.607,37.138 50.991,34.610 L50.991,34.532 L50.991,34.455 C51.147,33.916 51.218,33.308 51.297,32.698 C51.297,32.621 51.297,32.621 51.297,32.543 L51.297,32.465 C51.837,29.944 53.598,28.719 54.750,28.259 C54.828,28.181 54.906,28.181 55.055,28.103 C55.822,27.876 56.511,27.338 56.895,26.574 C56.739,25.505 56.590,24.435 56.355,23.437 C55.744,22.828 54.977,22.517 54.131,22.595 C53.975,22.595 53.904,22.595 53.748,22.595 C52.902,22.595 50.600,22.290 49.066,19.840 L48.988,19.762 C48.682,19.153 48.377,18.693 48.064,18.155 L47.986,18.077 C47.986,18.077 47.986,17.999 47.908,17.999 C46.678,15.705 47.218,13.637 47.830,12.568 C47.908,12.490 47.908,12.412 47.986,12.263 C48.448,11.577 48.597,10.734 48.369,9.891 C47.602,9.205 46.835,8.517 45.989,7.902 C45.144,7.824 44.298,8.128 43.687,8.667 C43.609,8.744 43.531,8.822 43.382,8.893 C43.304,9.431 42.153,10.196 40.391,10.196 C39.780,10.196 39.083,10.118 38.472,9.891 L38.394,9.891 L38.316,9.891 C37.776,9.665 37.165,9.431 36.625,9.282 L36.547,9.282 C36.547,9.282 36.547,9.282 36.469,9.282 C34.089,8.362 33.094,6.379 32.860,5.154 C32.860,5.076 32.782,4.928 32.782,4.850 C32.703,4.007 32.242,3.242 31.552,2.782 C30.401,2.704 29.634,2.704 28.483,2.782 C27.794,3.242 27.332,4.007 27.254,4.850 C27.254,4.928 27.254,5.076 27.176,5.154 C26.948,6.379 26.025,8.369 23.567,9.282 C23.567,9.282 23.567,9.282 23.488,9.282 L23.410,9.282 C22.870,9.438 22.259,9.665 21.719,9.891 L21.641,9.891 L21.563,9.891 C20.952,10.118 20.334,10.196 19.645,10.196 C17.883,10.196 16.732,9.431 16.192,8.971 C16.114,8.893 16.035,8.815 15.886,8.744 C15.275,8.135 14.430,7.824 13.584,7.979 C12.739,8.588 11.971,9.282 11.204,9.969 C10.977,10.812 11.126,11.654 11.588,12.341 C11.666,12.419 11.666,12.497 11.744,12.646 C12.355,13.715 12.895,15.861 11.666,18.077 L11.666,18.155 L11.588,18.233 C11.282,18.771 10.977,19.224 10.664,19.762 C10.664,19.840 10.586,19.840 10.586,19.918 C9.051,22.368 6.749,22.672 5.904,22.672 C5.826,22.672 5.677,22.672 5.599,22.672 C4.753,22.594 3.986,22.899 3.375,23.515 C3.147,24.584 2.913,25.653 2.835,26.652 C3.219,27.416 3.829,27.954 4.675,28.181 C4.753,28.181 4.902,28.259 4.980,28.337 C6.131,28.797 7.893,30.022 8.433,32.543 L8.433,32.621 C8.433,32.698 8.433,32.698 8.433,32.777 C8.512,33.385 8.590,33.923 8.739,34.532 L8.739,34.610 L8.739,34.688 C9.123,37.209 7.893,38.972 6.899,39.815 C6.821,39.893 6.742,39.971 6.671,40.041 C5.982,40.501 5.599,41.266 5.520,42.031 C6.060,43.022 6.593,44.020 7.211,44.934 C7.901,45.239 8.746,45.239 9.513,44.856 C9.591,44.778 9.741,44.778 9.819,44.778 C10.202,44.622 10.813,44.474 11.581,44.474 C12.888,44.474 14.110,44.934 15.190,45.777 C15.190,45.777 15.190,45.777 15.268,45.777 C15.346,45.777 15.346,45.855 15.425,45.855 C15.808,46.237 16.270,46.620 16.803,47.002 L16.881,47.080 L16.959,47.158 C18.877,48.843 19.105,51.059 18.877,52.284 C18.877,52.362 18.877,52.510 18.799,52.588 C18.501,53.431 18.657,54.196 19.041,54.883 ZM30.010,44.793 C21.726,44.793 15.048,38.066 15.048,29.881 C15.048,21.695 21.726,14.890 30.010,14.890 C38.295,14.890 44.973,21.617 44.973,29.802 C44.973,37.988 38.295,44.793 30.010,44.793 ZM30.010,17.716 C23.332,17.716 17.812,23.146 17.812,29.873 C17.812,36.600 23.332,41.960 30.010,41.960 C36.689,41.960 42.209,36.529 42.209,29.802 C42.209,23.076 36.689,17.716 30.010,17.716 Z"/>
</svg>